HIERARCHY
ROOT Hips
{
  OFFSET 16.5571 40.1322 -7.5601
  CHANNELS 6 Xposition Yposition Zposition Zrotation Xrotation Yrotation
  JOINT LeftHip
  {
    OFFSET 3.43 -2.84217e-013 0
    CHANNELS 6 Xposition Yposition Zposition Zrotation Xrotation Yrotation
    JOINT LeftKnee
    {
      OFFSET -1.77636e-014 -18.47 -7.99361e-015
      CHANNELS 6 Xposition Yposition Zposition Zrotation Xrotation Yrotation
      JOINT LeftAnkle
      {
        OFFSET -7.10543e-015 -17.95 -1.33227e-015
        CHANNELS 6 Xposition Yposition Zposition Zrotation Xrotation Yrotation
        End Site
        {
          OFFSET 0 -3.12 0
        }
      }
    }
  }
  JOINT RightHip
  {
    OFFSET -3.43 -3.97904e-013 -3.4639e-014
    CHANNELS 6 Xposition Yposition Zposition Zrotation Xrotation Yrotation
    JOINT RightKnee
    {
      OFFSET 8.88178e-015 -18.47 -7.10543e-015
      CHANNELS 6 Xposition Yposition Zposition Zrotation Xrotation Yrotation
      JOINT RightAnkle
      {
        OFFSET 5.32907e-015 -17.95 0
        CHANNELS 6 Xposition Yposition Zposition Zrotation Xrotation Yrotation
        End Site
        {
          OFFSET 0 -3.12 0
        }
      }
    }
  }
  JOINT Chest
  {
    OFFSET -1.3145e-013 4.57 0
    CHANNELS 6 Xposition Yposition Zposition Zrotation Xrotation Yrotation
    JOINT Chest2
    {
      OFFSET 3.55271e-014 6.57 -3.55271e-015
      CHANNELS 6 Xposition Yposition Zposition Zrotation Xrotation Yrotation
      JOINT LeftCollar
      {
        OFFSET 1.06 4.19 1.76
        CHANNELS 6 Xposition Yposition Zposition Zrotation Xrotation Yrotation
        JOINT LeftShoulder
        {
          OFFSET 5.81 -7.81597e-014 -2.04281e-014
          CHANNELS 6 Xposition Yposition Zposition Zrotation Xrotation Yrotation
          JOINT LeftElbow
          {
            OFFSET 2.13163e-014 -12.08 7.10543e-015
            CHANNELS 6 Xposition Yposition Zposition Zrotation Xrotation Yrotation
            JOINT LeftWrist
            {
              OFFSET -1.42109e-014 -9.82 -2.66454e-015
              CHANNELS 6 Xposition Yposition Zposition Zrotation Xrotation Yrotation
              End Site
              {
                OFFSET 0 -7.37 0
              }
            }
          }
        }
      }
      JOINT RightCollar
      {
        OFFSET -1.06 4.19 1.76
        CHANNELS 6 Xposition Yposition Zposition Zrotation Xrotation Yrotation
        JOINT RightShoulder
        {
          OFFSET -6.06 3.55271e-014 6.21725e-015
          CHANNELS 6 Xposition Yposition Zposition Zrotation Xrotation Yrotation
          JOINT RightElbow
          {
            OFFSET 0 -11.08 -3.55271e-015
            CHANNELS 6 Xposition Yposition Zposition Zrotation Xrotation Yrotation
            JOINT RightWrist
            {
              OFFSET -7.10543e-015 -9.82 1.77636e-015
              CHANNELS 6 Xposition Yposition Zposition Zrotation Xrotation Yrotation
              End Site
              {
                OFFSET 0 -7.14001 0
              }
            }
          }
        }
      }
      JOINT Neck
      {
        OFFSET -3.55271e-015 4.05 5.55112e-016
        CHANNELS 6 Xposition Yposition Zposition Zrotation Xrotation Yrotation
        JOINT Head
        {
          OFFSET -3.55271e-015 5.19 0
          CHANNELS 6 Xposition Yposition Zposition Zrotation Xrotation Yrotation
          End Site
          {
            OFFSET 0 4.14001 0
          }
        }
      }
    }
  }
}
MOTION
Frames:	4
Frame Time:	0.0333333
18.509 40.0628 -6.74437 0.200941 -0.000833733 -0.0537027 3.43 0 0 3.9105 1.80547 6.34937 -1.77636e-014 -18.47 -7.99361e-015 1.20526 3.1127 5.63451 -7.10543e-015 -17.95 -1.33227e-015 -5.88719 -3.872 -0.199176 -3.43 -7.10543e-015 -3.4639e-014 -5.73534 1.63888 -8.59463 8.88178e-015 -18.47 -7.10543e-015 -0.871753 2.97997 -10.7071 5.32907e-015 -17.95 0 6.5582 -2.45976 0.14095 1.1724e-013 4.57 0 -0.108648 -4.80491 0.0356261 3.55271e-014 6.57 -3.55271e-015 -0.101563 -4.39195 0.0236825 1.06 4.19 1.76 10.6217 0.455616 1.70507 5.81 -7.10543e-015 -2.04281e-014 81.4892 -5.57864 8.26249 2.13163e-014 -12.08 7.10543e-015 -7.38188 -2.4945 -3.04059 -1.42109e-014 -9.82 -2.66454e-015 -0.36851 -2.77051 -0.00891131 -1.06 4.19 1.76 -9.93196 0.472328 -1.94401 -6.06 3.55271e-014 6.21725e-015 -86.3301 4.41832 -9.59792 0 -11.08 -3.55271e-015 5.25457 -2.41902 11.9792 -7.10543e-015 -9.82 1.77636e-015 0.834693 -0.561278 0.00408849 -3.55271e-015 4.05 5.55112e-016 0.0397513 17.427 -0.00609241 -3.55271e-015 5.19 0 -0.00799646 -3.09006 0.000128143 
18.5071 40.0682 -6.72779 0.265812 0.0925554 0.0423857 3.43 -2.84217e-013 0 3.82654 1.71663 6.26871 -1.77636e-014 -18.47 -7.99361e-015 1.22199 3.0988 5.55903 -7.10543e-015 -17.95 -1.33227e-015 -5.74879 -3.87927 -0.194852 -3.43 2.77112e-013 -3.4639e-014 -5.8256 1.57629 -8.65917 8.88178e-015 -18.47 -7.10543e-015 -0.832983 3.04744 -10.7179 5.32907e-015 -17.95 0 6.63263 -2.54531 0.147513 -1.06581e-013 4.57 0 -0.181617 -4.86549 -0.0948995 3.55271e-014 6.57 -3.55271e-015 -0.157973 -4.44706 -0.0961662 1.06 4.19 1.76 10.3688 0.467211 1.78201 5.81 -1.77636e-013 -2.04281e-014 81.7685 -5.40124 8.10107 2.13163e-014 -12.08 7.10543e-015 -7.52243 -2.48431 -2.98247 -1.42109e-014 -9.82 -2.66454e-015 -0.442538 -2.73436 -0.0105618 -1.06 4.19 1.76 -10.0701 0.45678 -1.79709 -6.06 3.55271e-014 6.21725e-015 -86.0039 4.47506 -9.67898 0 -11.08 -3.55271e-015 5.16774 -2.42429 12.009 -7.10543e-015 -9.82 1.77636e-015 0.740529 -0.594863 0.00384429 -3.55271e-015 4.05 5.55112e-016 0.0285189 17.5237 0.00624431 -3.55271e-015 5.19 0 -0.0233719 -3.38742 0.0254642 
18.498 40.0666 -6.72808 0.403772 0.268487 0.0402415 3.43 0 0 3.74962 1.57336 6.29565 -1.77636e-014 -18.47 -7.99361e-015 1.09961 3.01295 5.64263 -7.10543e-015 -17.95 -1.33227e-015 -5.64853 -3.81551 -0.188299 -3.43 3.8695e-013 -3.4639e-014 -5.95131 1.33482 -8.66703 8.88178e-015 -18.47 -7.10543e-015 -0.884123 3.20781 -10.722 5.32907e-015 -17.95 0 6.78637 -2.63383 0.156191 -2.14582e-013 4.57 0 -0.319699 -4.95054 -0.0844507 3.55271e-014 6.57 -3.55271e-015 -0.284057 -4.5246 -0.0912199 1.06 4.19 1.76 10.3008 0.464435 1.74044 5.81 -2.37752e-013 -2.04281e-014 81.8835 -5.25353 7.89283 2.13163e-014 -12.08 7.10543e-015 -7.63732 -2.47635 -2.94734 -1.42109e-014 -9.82 -2.66454e-015 -0.43207 -2.70499 -0.0102012 -1.06 4.19 1.76 -9.96489 0.456779 -1.77814 -6.06 3.55271e-014 6.21725e-015 -85.9904 4.62368 -9.55813 0 -11.08 -3.55271e-015 5.18586 -2.41427 13.0844 -7.10543e-015 -9.82 1.77636e-015 0.795206 -0.679363 0.00471456 -3.55271e-015 4.05 5.55112e-016 0.0797659 17.5742 -0.0589241 -3.55271e-015 5.19 0 0.027603 -3.66183 -0.0347565 
18.4972 40.0657 -6.70961 0.293084 0.275213 0.132126 3.43 2.84217e-013 0 3.87505 1.57256 6.33999 -1.77636e-014 -18.47 -7.99361e-015 1.11703 3.05861 5.51326 -7.10543e-015 -17.95 -1.33227e-015 -5.79462 -3.8705 -0.195963 -3.43 4.42905e-013 -3.4639e-014 -5.80526 1.40537 -8.57662 8.88178e-015 -18.47 -7.10543e-015 -0.91875 3.14415 -10.8587 5.32907e-015 -17.95 0 6.84736 -2.641 0.158028 -3.1019e-013 4.57 0 -0.257601 -4.90113 -0.158638 3.55271e-014 6.57 -3.55271e-015 -0.222052 -4.47976 -0.155531 1.06 4.19 1.76 10.3178 0.47162 1.82006 5.81 -2.63129e-013 -2.04281e-014 81.8678 -5.20084 7.96299 2.13163e-014 -12.08 7.10543e-015 -7.69308 -2.46093 -2.73713 -1.42109e-014 -9.82 -2.66454e-015 -0.841021 -2.4006 -0.0176216 -1.06 4.19 1.76 -9.88782 0.463874 -1.84278 -6.06 3.55271e-014 6.21725e-015 -86.0549 4.62647 -9.46677 0 -11.08 -3.55271e-015 5.21977 -2.40789 13.7477 -7.10543e-015 -9.82 1.77636e-015 1.12128 -0.843834 0.00825734 -3.55271e-015 4.05 5.55112e-016 0.056354 17.47 -0.0426277 -3.55271e-015 5.19 0 0.180995 -3.63582 -0.0348428 
